<svg xmlns="http://www.w3.org/2000/svg" width="70" height="70" viewBox="0 0 70 70" style="width: 100%; height: 100%;"><desc>Made with illustrio</desc>
  
<g class="shifted" transform="matrix(1,0,0,1,1.5,1.5)"><g fill="none" fill-rule="evenodd" stroke="none" style="fill-opacity: 0.7;" class="secondary-fill">
    
    <path fill="none" d="M26.7272727,0.636363636 C26.7272727,0.423818182 26.621,0.225272727 26.4440909,0.106909091 C26.2671818,-0.0114545455 26.0438182,-0.0330909091 25.8465455,0.049 L10.5738182,6.41263636 C10.3364545,6.51127273 10.1818182,6.74290909 10.1818182,7 L10.1818182,24.57 C9.13118182,23.5581818 7.52563636,22.9090909 5.72727273,22.9090909 C2.56963636,22.9090909 0,24.9079091 0,27.3636364 C0,29.8193636 2.56963636,31.8181818 5.72727273,31.8181818 C8.88490909,31.8181818 11.4545455,29.8193636 11.4545455,27.3636364 L11.4545455,12.5153636 L25.4545455,6.68181818 L25.4545455,20.7518182 C24.4039091,19.74 22.7983636,19.0909091 21,19.0909091 C17.8417273,19.0909091 15.2727273,21.0897273 15.2727273,23.5454545 C15.2727273,26.0011818 17.8417273,28 21,28 C24.1582727,28 26.7272727,26.0011818 26.7272727,23.5454545 L26.7272727,0.636363636 L26.7272727,0.636363636 Z M11.4545455,11.1363636 L11.4545455,7.42445455 L25.4545455,1.59090909 L25.4545455,5.30281818 L11.4545455,11.1363636 L11.4545455,11.1363636 Z" transform="translate(21.636 19.09)" stroke="none" style="fill-opacity: 0.7;" class="secondary-fill"></path>
  </g></g><g class="base"><g fill="none" fill-rule="evenodd" stroke="none" class="main-stroke">
    
    <path fill="none" d="M26.7272727,0.636363636 C26.7272727,0.423818182 26.621,0.225272727 26.4440909,0.106909091 C26.2671818,-0.0114545455 26.0438182,-0.0330909091 25.8465455,0.049 L10.5738182,6.41263636 C10.3364545,6.51127273 10.1818182,6.74290909 10.1818182,7 L10.1818182,24.57 C9.13118182,23.5581818 7.52563636,22.9090909 5.72727273,22.9090909 C2.56963636,22.9090909 0,24.9079091 0,27.3636364 C0,29.8193636 2.56963636,31.8181818 5.72727273,31.8181818 C8.88490909,31.8181818 11.4545455,29.8193636 11.4545455,27.3636364 L11.4545455,12.5153636 L25.4545455,6.68181818 L25.4545455,20.7518182 C24.4039091,19.74 22.7983636,19.0909091 21,19.0909091 C17.8417273,19.0909091 15.2727273,21.0897273 15.2727273,23.5454545 C15.2727273,26.0011818 17.8417273,28 21,28 C24.1582727,28 26.7272727,26.0011818 26.7272727,23.5454545 L26.7272727,0.636363636 L26.7272727,0.636363636 Z M11.4545455,11.1363636 L11.4545455,7.42445455 L25.4545455,1.59090909 L25.4545455,5.30281818 L11.4545455,11.1363636 L11.4545455,11.1363636 Z" transform="translate(21.636 19.09)" stroke="none" class="main-stroke"></path>
  </g></g><style>
          .main-fill {fill: #543864;}
          .main-stroke {stroke: #543864;}
          .secondary-fill {fill: #f39c12;}
          .secondary-stroke {stroke: #f39c12;}

          .main-fill--darken {fill: #2b1d33;}
          .main-stroke--darken {stroke: #2b1d33;}
          .secondary-fill--darken {fill: #b06f09;}
          .secondary-stroke--darken {stroke: #b06f09;}

          .main-fill--darkener {fill: #0f0a12;}
          .main-stroke--darkener {stroke: #0f0a12;}
          .secondary-fill--darkener {fill: #7f5006;}
          .secondary-stroke--darkener {stroke: #7f5006;}
        </style></svg>